<?xml version="1.0" encoding="iso-8859-1"?>
<!-- Uploaded to: SVG Repo, www.svgrepo.com, Generator: SVG Repo Mixer Tools -->
<svg fill="#000000" height="800px" width="800px" version="1.1" id="Layer_1" xmlns="http://www.w3.org/2000/svg" xmlns:xlink="http://www.w3.org/1999/xlink" 
	 viewBox="0 0 512 512" xml:space="preserve">
<g>
	<g>
		<path d="M256,0C114.837,0,0,92.672,0,206.592c0,41.792,31.36,99.221,63.957,140.331c0,36.651,0.021,73.024,0.021,101.205
			C64,483.349,92.672,512,127.893,512h256.192C419.307,512,448,483.349,448,448.107V349.44c32.683-38.549,64-95.616,64-142.848
			C512,92.672,397.141,0,256,0z M256,448c-23.573,0-42.667-19.093-42.667-42.667c0-23.573,19.093-42.667,42.667-42.667
			c23.552,0,42.667,19.093,42.667,42.667C298.667,428.907,279.552,448,256,448z M405.333,339.179
			c-18.731,14.421-41.877,23.488-66.987,23.488c-34.219,0-64.384-17.344-83.264-43.712c-20.203,26.197-52.032,43.712-87.403,43.712
			c-23.04,0-44.117-8.021-61.355-21.141c0.064-0.661,0.299-1.28,0.299-1.941l0.021-104.917H256h149.333V339.179z M447.957,191.872
			c0-3.029-0.704-5.888-1.856-8.491c-0.32-0.747-0.939-1.301-1.344-2.005c-1.067-1.813-2.219-3.541-3.776-4.971
			c-0.192-0.171-0.256-0.448-0.448-0.619c-0.96-0.811-2.133-1.195-3.179-1.835c-1.003-0.597-1.899-1.301-2.987-1.728
			c-1.749-0.683-3.584-0.896-5.44-1.109c-0.789-0.085-1.472-0.448-2.261-0.448H119.339H85.333c-0.789,0-1.472,0.363-2.24,0.448
			c-1.899,0.192-3.755,0.427-5.504,1.109c-1.067,0.427-1.899,1.109-2.88,1.664c-1.067,0.661-2.283,1.067-3.243,1.899
			c-0.213,0.171-0.277,0.448-0.469,0.619c-1.557,1.429-2.709,3.157-3.776,4.992c-0.405,0.704-1.003,1.237-1.323,1.963
			c-1.152,2.581-1.813,5.397-1.856,8.384c0,0.064-0.043,0.149-0.043,0.235c-0.021,13.461-0.043,42.645-0.043,77.909
			c-13.163-24.555-21.291-47.744-21.291-63.296c0-80.789,76.523-147.947,176.747-161.344L96.811,109.077
			c-5.205,2.709-9.067,7.424-10.667,13.077c-1.6,5.632-0.811,11.691,2.176,16.747l12.672,21.333
			c3.989,6.699,11.072,10.432,18.347,10.432c3.712,0,7.467-0.96,10.88-2.987c10.133-6.016,13.461-19.115,7.445-29.248l-1.131-1.92
			l35.819-18.645l3.413,4.928c4.16,5.995,10.816,9.195,17.579,9.195c4.181,0,8.405-1.216,12.117-3.776
			c9.685-6.699,12.117-19.989,5.419-29.675l-0.363-0.533l24.853-12.949l2.261,3.819c6.016,10.133,19.115,13.461,29.227,7.488
			c10.155-6.016,13.504-19.093,7.488-29.227l-12.544-21.205c-0.747-1.259-1.856-2.091-2.816-3.157
			c116.245,1.259,210.347,74.219,210.347,163.819c0,18.517-8.085,43.115-21.333,67.797V256v-64
			C448,191.957,447.957,191.915,447.957,191.872z"/>
	</g>
</g>
</svg>